<!-- icon666.com - MILLIONS OF FREE VECTOR ICONS --><svg viewBox="0 0 511.99972 511" xmlns="http://www.w3.org/2000/svg"><path d="m437.027344 75.472656c-48.347656-48.347656-112.628906-74.972656-181.003906-74.972656-8.28125 0-14.996094 6.714844-14.996094 15 0 8.28125 6.714844 14.996094 14.996094 14.996094 124.605468 0 225.976562 101.375 225.980468 225.976562 0 8.285156 6.714844 15 15 15 8.28125 0 14.996094-6.714844 14.996094-15 0-68.371094-26.628906-132.652344-74.972656-181zm0 0" fill="#000000" style="fill: rgb(250, 229, 124);"></path><path d="m256.027344 80.824219s0 0-.003906 0c-8.28125 0-14.996094 6.714843-14.996094 15 0 8.28125 6.714844 14.996093 14.996094 14.996093 80.3125.003907 145.652343 65.34375 145.65625 145.652344 0 8.285156 6.714843 15 14.996093 15 8.285157 0 15-6.714844 15-15-.003906-96.847656-78.800781-175.644531-175.648437-175.648437zm0 0" fill="#000000" style="fill: rgb(250, 229, 124);"></path><path d="m321.351562 256.472656c0 8.285156 6.714844 15 15 15 8.28125 0 14.996094-6.714844 14.996094-15 0-52.558594-42.761718-95.320312-95.324218-95.320312-8.28125 0-14.996094 6.714844-14.996094 14.996094 0 8.285156 6.714844 15 14.996094 15 36.023437 0 65.328124 29.304687 65.328124 65.324218zm0 0" fill="#000000" style="fill: rgb(250, 229, 124);"></path><path d="m415.089844 370.691406c-.03125-.03125-.0625-.066406-.09375-.097656l-41.847656-41.847656c-10.417969-10.417969-24.269532-16.15625-39.003907-16.15625-14.707031 0-28.542969 5.71875-38.953125 16.101562-.019531.019532-.035156.035156-.050781.054688-.015625.011718-.027344.027344-.039063.035156l-26.90625 26.910156-111.429687-111.433594 26.878906-26.882812c.03125-.027344.0625-.058594.089844-.089844 21.480469-21.507812 21.472656-56.480468-.027344-77.980468l-41.660156-41.664063c-.039063-.039063-.078125-.078125-.117187-.117187-.023438-.023438-.050782-.046876-.078126-.074219-.125-.121094-.25-.242188-.382812-.363281-10.359375-10.109376-24.003906-15.679688-38.507812-15.679688-14.648438 0-28.425782 5.671875-38.832032 15.980469-.058594.054687-.117187.113281-.171875.171875-.070312.066406-.136719.136718-.203125.203125l-37.242187 37.246093c-27.617188 27.613282-33.902344 72.1875-17.703125 125.507813 15.21875 50.085937 48.796875 102.867187 94.546875 148.625 63.722656 63.722656 141.425781 103.308594 202.785156 103.308594 29.363281 0 54.035156-9.152344 71.335937-26.449219.515626-.515625 19.757813-19.757812 37.308594-37.3125.097656-.089844.1875-.183594.28125-.277344 21.074219-21.214844 21.300782-55.523437.605469-77.097656-.1875-.214844-.382813-.417969-.582031-.621094zm0 0" fill="#000000" style="fill: rgb(250, 229, 124);"></path></svg>