<svg width="35" height="35" viewBox="0 0 35 35" fill="none" xmlns="http://www.w3.org/2000/svg">
<circle cx="17.5" cy="17.5" r="17.5" fill="#57A3BB"/>
<path d="M12.8984 21.5723V24.4449H14.1782C14.1126 24.6295 14.0703 24.8248 14.0703 25.0312C14.0703 26.0005 14.8588 26.7891 15.8281 26.7891C16.7974 26.7891 17.5859 26.0005 17.5859 25.0312C17.5859 24.8248 17.5437 24.6295 17.478 24.4449H21.2095C21.1438 24.6295 21.1016 24.8248 21.1016 25.0312C21.1016 26.0005 21.8901 26.7891 22.8594 26.7891C23.8287 26.7891 24.6172 26.0005 24.6172 25.0312C24.6172 24.8248 24.5749 24.6295 24.5093 24.4453H25.8281V23.2734H14.0703V22.1016H25.7503L27 12.7266H12.3239L11.6207 9.21094H7V10.3828H10.6605L12.8984 21.5723ZM21.1016 15.0703H22.2734V19.7578H21.1016V15.0703ZM18.7578 15.0703H19.9297V19.7578H18.7578V15.0703ZM16.4141 15.0703H17.5859V19.7578H16.4141V15.0703Z" fill="#FAE57C"/>
</svg>
