<!-- icon666.com - MILLIONS OF FREE VECTOR ICONS --><svg id="Layer_1" enable-background="new 0 0 100 100" viewBox="0 0 100 100" xmlns="http://www.w3.org/2000/svg"><path d="m7.5 50c0 23.435 19.065 42.5 42.5 42.5s42.5-19.065 42.5-42.5-19.065-42.5-42.5-42.5-42.5 19.065-42.5 42.5zm20.567 0c0-.59.257-1.15.705-1.535l32.55-27.977c.848-.728 2.125-.632 2.854.215.728.848.632 2.126-.215 2.854l-30.765 26.443 30.764 26.442c.848.728.944 2.006.215 2.854-.4.465-.966.704-1.535.704-.466 0-.936-.161-1.318-.489l-32.55-27.977c-.448-.384-.705-.944-.705-1.534z" fill="#000000" style="fill: rgb(138, 196, 208);"></path></svg>