<svg width="59" height="45" viewBox="0 0 59 45" fill="none" xmlns="http://www.w3.org/2000/svg">
<rect x="7" width="39" height="12" fill="#3E84A8"/>
<ellipse cx="18" cy="13.5" rx="11" ry="9.5" fill="#8AC4D0"/>
<ellipse cx="35" cy="13.5" rx="11" ry="9.5" fill="#8AC4D0"/>
<rect y="9" width="53" height="17" fill="#3E84A8"/>
<rect y="23" width="4" height="7" fill="#3E84A8"/>
<rect x="49" y="23" width="4" height="7" fill="#3E84A8"/>
<path d="M1.04 40V32.77H3.01C3.72333 32.77 4.33 32.88 4.83 33.1C5.33667 33.32 5.74333 33.61 6.05 33.97C6.35667 34.33 6.58 34.73 6.72 35.17C6.86667 35.6033 6.94 36.0367 6.94 36.47C6.94 37.0167 6.84333 37.5067 6.65 37.94C6.46333 38.3733 6.20333 38.7433 5.87 39.05C5.53667 39.3567 5.15333 39.5933 4.72 39.76C4.29333 39.92 3.84 40 3.36 40H1.04ZM2.01 39.07H3.17C3.57 39.07 3.93667 39.01 4.27 38.89C4.61 38.77 4.90333 38.5967 5.15 38.37C5.40333 38.1433 5.6 37.8667 5.74 37.54C5.88 37.2067 5.95 36.83 5.95 36.41C5.95 35.9633 5.87667 35.5733 5.73 35.24C5.58333 34.9 5.38333 34.6167 5.13 34.39C4.87667 34.1633 4.59 33.9933 4.27 33.88C3.95 33.76 3.61333 33.7 3.26 33.7H2.01V39.07ZM9.1693 35.86L9.2593 37.06L9.2093 36.9C9.31596 36.6467 9.4693 36.4333 9.6693 36.26C9.87596 36.08 10.0893 35.9433 10.3093 35.85C10.536 35.75 10.7326 35.7 10.8993 35.7L10.8493 36.62C10.536 36.6 10.2593 36.66 10.0193 36.8C9.78596 36.94 9.5993 37.1267 9.4593 37.36C9.32596 37.5933 9.2593 37.8433 9.2593 38.11V40H8.3393V35.86H9.1693ZM13.8433 40.1C13.3699 40.1 12.9633 40.0067 12.6233 39.82C12.2833 39.6267 12.0199 39.3667 11.8333 39.04C11.6533 38.7067 11.5633 38.3267 11.5633 37.9C11.5633 37.4933 11.6666 37.1233 11.8733 36.79C12.0799 36.4567 12.3566 36.19 12.7033 35.99C13.0499 35.79 13.4366 35.69 13.8633 35.69C14.4099 35.69 14.8633 35.85 15.2233 36.17C15.5833 36.49 15.8266 36.93 15.9533 37.49L12.5433 38.69L12.3233 38.14L15.1233 37.12L14.9233 37.25C14.8433 37.03 14.7099 36.84 14.5233 36.68C14.3366 36.5133 14.0933 36.43 13.7933 36.43C13.5399 36.43 13.3133 36.4933 13.1133 36.62C12.9133 36.74 12.7566 36.9067 12.6433 37.12C12.5299 37.3333 12.4733 37.5767 12.4733 37.85C12.4733 38.1367 12.5333 38.39 12.6533 38.61C12.7733 38.8233 12.9366 38.9933 13.1433 39.12C13.3566 39.24 13.5966 39.3 13.8633 39.3C14.0433 39.3 14.2166 39.2667 14.3833 39.2C14.5566 39.1333 14.7166 39.0467 14.8633 38.94L15.2933 39.63C15.0866 39.77 14.8533 39.8833 14.5933 39.97C14.3399 40.0567 14.0899 40.1 13.8433 40.1ZM18.8386 40.1C18.4519 40.1 18.0986 40.0167 17.7786 39.85C17.4653 39.6833 17.2153 39.44 17.0286 39.12C16.8486 38.7933 16.7586 38.3967 16.7586 37.93C16.7586 37.47 16.8553 37.0733 17.0486 36.74C17.2419 36.4 17.4986 36.14 17.8186 35.96C18.1453 35.78 18.5019 35.69 18.8886 35.69C19.2753 35.69 19.6019 35.78 19.8686 35.96C20.1353 36.1333 20.3386 36.34 20.4786 36.58L20.4186 36.74L20.5086 35.86H21.3686V40H20.4386V38.92L20.5386 39.16C20.5119 39.2267 20.4519 39.3133 20.3586 39.42C20.2719 39.52 20.1519 39.6233 19.9986 39.73C19.8519 39.8367 19.6819 39.9267 19.4886 40C19.2953 40.0667 19.0786 40.1 18.8386 40.1ZM19.0886 39.33C19.3219 39.33 19.5319 39.2867 19.7186 39.2C19.9053 39.1133 20.0586 38.9933 20.1786 38.84C20.3053 38.68 20.3919 38.49 20.4386 38.27V37.46C20.3853 37.26 20.2919 37.0867 20.1586 36.94C20.0253 36.7867 19.8653 36.67 19.6786 36.59C19.4919 36.5033 19.2853 36.46 19.0586 36.46C18.8119 36.46 18.5853 36.52 18.3786 36.64C18.1719 36.76 18.0053 36.9267 17.8786 37.14C17.7586 37.3533 17.6986 37.6033 17.6986 37.89C17.6986 38.1567 17.7619 38.4 17.8886 38.62C18.0153 38.84 18.1853 39.0133 18.3986 39.14C18.6119 39.2667 18.8419 39.33 19.0886 39.33ZM23.808 35.86L23.888 36.79L23.848 36.71C24.0013 36.3967 24.218 36.15 24.498 35.97C24.7846 35.79 25.1113 35.7 25.478 35.7C25.7113 35.7 25.918 35.7367 26.098 35.81C26.278 35.8833 26.4246 35.99 26.538 36.13C26.658 36.2633 26.7346 36.43 26.768 36.63L26.718 36.66C26.878 36.36 27.098 36.1267 27.378 35.96C27.6646 35.7867 27.9646 35.7 28.278 35.7C28.6846 35.7 29.0046 35.8167 29.238 36.05C29.478 36.2767 29.6013 36.5733 29.608 36.94V40H28.678V37.27C28.6713 37.0567 28.618 36.88 28.518 36.74C28.4246 36.5933 28.258 36.5133 28.018 36.5C27.778 36.5 27.5613 36.5733 27.368 36.72C27.1813 36.8667 27.0346 37.0567 26.928 37.29C26.8213 37.5167 26.7646 37.7633 26.758 38.03V40H25.828V37.27C25.8213 37.0567 25.7646 36.88 25.658 36.74C25.558 36.5933 25.388 36.5133 25.148 36.5C24.9013 36.5 24.6846 36.5733 24.498 36.72C24.3113 36.8667 24.1646 37.0567 24.058 37.29C23.958 37.5233 23.908 37.7733 23.908 38.04V40H22.978V35.86H23.808ZM31.4599 32.77H32.4299V39.07H36.0999V40H31.4599V32.77ZM39.1706 40.1C38.784 40.1 38.4306 40.0167 38.1106 39.85C37.7973 39.6833 37.5473 39.44 37.3606 39.12C37.1806 38.7933 37.0906 38.3967 37.0906 37.93C37.0906 37.47 37.1873 37.0733 37.3806 36.74C37.574 36.4 37.8306 36.14 38.1506 35.96C38.4773 35.78 38.834 35.69 39.2206 35.69C39.6073 35.69 39.934 35.78 40.2006 35.96C40.4673 36.1333 40.6706 36.34 40.8106 36.58L40.7506 36.74L40.8406 35.86H41.7006V40H40.7706V38.92L40.8706 39.16C40.844 39.2267 40.784 39.3133 40.6906 39.42C40.604 39.52 40.484 39.6233 40.3306 39.73C40.184 39.8367 40.014 39.9267 39.8206 40C39.6273 40.0667 39.4106 40.1 39.1706 40.1ZM39.4206 39.33C39.654 39.33 39.864 39.2867 40.0506 39.2C40.2373 39.1133 40.3906 38.9933 40.5106 38.84C40.6373 38.68 40.724 38.49 40.7706 38.27V37.46C40.7173 37.26 40.624 37.0867 40.4906 36.94C40.3573 36.7867 40.1973 36.67 40.0106 36.59C39.824 36.5033 39.6173 36.46 39.3906 36.46C39.144 36.46 38.9173 36.52 38.7106 36.64C38.504 36.76 38.3373 36.9267 38.2106 37.14C38.0906 37.3533 38.0306 37.6033 38.0306 37.89C38.0306 38.1567 38.094 38.4 38.2206 38.62C38.3473 38.84 38.5173 39.0133 38.7306 39.14C38.944 39.2667 39.174 39.33 39.4206 39.33ZM44.14 35.86L44.22 36.87L44.18 36.71C44.3133 36.4033 44.53 36.16 44.83 35.98C45.13 35.7933 45.4767 35.7 45.87 35.7C46.2633 35.7 46.5833 35.8167 46.83 36.05C47.0833 36.2767 47.2133 36.5733 47.22 36.94V40H46.28V37.27C46.2733 37.0433 46.2067 36.86 46.08 36.72C45.96 36.5733 45.77 36.5 45.51 36.5C45.27 36.5 45.0533 36.5667 44.86 36.7C44.6667 36.8333 44.5133 37.0167 44.4 37.25C44.2933 37.4833 44.24 37.7533 44.24 38.06V40H43.31V35.86H44.14ZM50.5173 40.1C50.1373 40.1 49.7907 40.01 49.4773 39.83C49.1707 39.6433 48.9273 39.3833 48.7473 39.05C48.5673 38.71 48.4773 38.32 48.4773 37.88C48.4773 37.42 48.5707 37.0267 48.7573 36.7C48.9507 36.3733 49.2107 36.1233 49.5373 35.95C49.864 35.7767 50.2307 35.69 50.6373 35.69C50.964 35.69 51.274 35.76 51.5673 35.9C51.8673 36.04 52.1007 36.2333 52.2673 36.48L52.2273 36.81V32.26H53.1473V40H52.2173V38.97L52.3173 39.23C52.124 39.4833 51.874 39.6933 51.5673 39.86C51.2607 40.02 50.9107 40.1 50.5173 40.1ZM50.8073 39.31C51.054 39.31 51.274 39.2667 51.4673 39.18C51.6607 39.0867 51.8207 38.96 51.9473 38.8C52.074 38.64 52.164 38.45 52.2173 38.23V37.45C52.164 37.25 52.0673 37.0767 51.9273 36.93C51.794 36.7767 51.6307 36.6567 51.4373 36.57C51.2507 36.4767 51.0407 36.43 50.8073 36.43C50.554 36.43 50.3207 36.4933 50.1073 36.62C49.9007 36.74 49.734 36.9067 49.6073 37.12C49.4807 37.3333 49.4173 37.58 49.4173 37.86C49.4173 38.1333 49.4807 38.38 49.6073 38.6C49.734 38.8133 49.904 38.9867 50.1173 39.12C50.3307 39.2467 50.5607 39.31 50.8073 39.31Z" fill="#28527A"/>
</svg>
