<svg width="20" height="20" viewBox="0 0 20 20" fill="none" xmlns="http://www.w3.org/2000/svg">
<path d="M8.39998 1.2C4.6406 1.2 1.59998 4.24062 1.59998 8C1.59998 11.7594 4.6406 14.8 8.39998 14.8C9.74216 14.8 10.9844 14.4062 12.0375 13.7375L16.95 18.65L18.65 16.95L13.8 12.1125C14.6719 10.9687 15.2 9.55156 15.2 8C15.2 4.24062 12.1594 1.2 8.39998 1.2ZM8.39998 2.8C11.2797 2.8 13.6 5.12031 13.6 8C13.6 10.8797 11.2797 13.2 8.39998 13.2C5.52029 13.2 3.19998 10.8797 3.19998 8C3.19998 5.12031 5.52029 2.8 8.39998 2.8Z" fill="#3E84A8"/>
</svg>
