<svg width="100" height="100" viewBox="0 0 100 100" fill="none" xmlns="http://www.w3.org/2000/svg">
<path d="M92.5 50C92.5 73.435 73.435 92.5 50 92.5C26.565 92.5 7.5 73.435 7.5 50C7.5 26.565 26.565 7.5 50 7.5C73.435 7.5 92.5 26.565 92.5 50ZM71.933 50C71.933 49.41 71.676 48.85 71.228 48.465L38.678 20.488C37.83 19.76 36.553 19.856 35.824 20.703C35.096 21.551 35.192 22.829 36.039 23.557L66.804 50L36.04 76.442C35.192 77.17 35.096 78.448 35.825 79.296C36.225 79.761 36.791 80 37.36 80C37.826 80 38.296 79.839 38.678 79.511L71.228 51.534C71.676 51.15 71.933 50.59 71.933 50Z" fill="#8AC4D0"/>
</svg>
