<svg width="69" height="15" viewBox="0 0 69 15" fill="none" xmlns="http://www.w3.org/2000/svg">
<g clip-path="url(#clip0_166_61)">
<path d="M15 6.44905L10.0321 5.40053L7.5 1V13.1938L12.1351 15.2657L11.5971 10.217L15 6.44905Z" fill="#FFCD00"/>
<path d="M4.96788 5.40053L0 6.44905L3.40289 10.217L2.86487 15.2657L7.5 13.1938V1L4.96788 5.40053Z" fill="#FFDA44"/>
</g>
<g clip-path="url(#clip1_166_61)">
<path d="M33 6.44905L28.0321 5.40053L25.5 1V13.1938L30.1351 15.2657L29.5971 10.217L33 6.44905Z" fill="#FFCD00"/>
<path d="M22.9679 5.40053L18 6.44905L21.4029 10.217L20.8649 15.2657L25.5 13.1938V1L22.9679 5.40053Z" fill="#FFDA44"/>
</g>
<g clip-path="url(#clip2_166_61)">
<path d="M51 6.44905L46.0321 5.40053L43.5 1V13.1938L48.1351 15.2657L47.5971 10.217L51 6.44905Z" fill="#FFCD00"/>
<path d="M40.9679 5.40053L36 6.44905L39.4029 10.217L38.8649 15.2657L43.5 13.1938V1L40.9679 5.40053Z" fill="#FFDA44"/>
</g>
<g clip-path="url(#clip3_166_61)">
<path d="M69 6.44905L64.0321 5.40053L61.5 1V13.1938L66.1351 15.2657L65.5971 10.217L69 6.44905Z" fill="#FFCD00"/>
<path d="M58.9679 5.40053L54 6.44905L57.4029 10.217L56.8649 15.2657L61.5 13.1938V1L58.9679 5.40053Z" fill="#FFDA44"/>
</g>
<defs>
<clipPath id="clip0_166_61">
<rect width="15" height="15" fill="white"/>
</clipPath>
<clipPath id="clip1_166_61">
<rect width="15" height="15" fill="white" transform="translate(18)"/>
</clipPath>
<clipPath id="clip2_166_61">
<rect width="15" height="15" fill="white" transform="translate(36)"/>
</clipPath>
<clipPath id="clip3_166_61">
<rect width="15" height="15" fill="white" transform="translate(54)"/>
</clipPath>
</defs>
</svg>
